<svg width="160" height="160" viewBox="0 0 160 160" fill="none" xmlns="http://www.w3.org/2000/svg">
<path d="M80.0063 160C124.125 160 160.013 124.112 160.013 79.9937C160.013 35.8749 124.112 0 80.0063 0C35.9003 0 0 35.8876 0 80.0063C0 124.125 35.8876 160 80.0063 160ZM53.021 115.666C53.021 100.787 65.127 88.6933 79.9937 88.6933C94.873 88.6933 106.966 100.799 106.966 115.666C106.966 130.545 94.8603 142.639 79.9937 142.639C65.127 142.639 53.021 130.533 53.021 115.666ZM123.657 107.903C119.972 87.1357 101.812 71.3194 80.0063 71.3194C58.2002 71.3194 40.0412 87.1484 36.3562 107.903C35.609 104.662 35.2038 101.293 35.2038 97.8235C35.2038 73.1175 55.3004 53.021 80.0063 53.021C104.712 53.021 124.809 73.1175 124.809 97.8235C124.809 101.293 124.404 104.662 123.657 107.903ZM80.0063 17.3613C114.539 17.3613 142.639 45.461 142.639 79.9937C142.639 83.59 142.322 87.0977 141.74 90.5295C138.118 59.6692 111.816 35.647 80.0063 35.647C48.1963 35.647 21.8947 59.6692 18.2731 90.5295C17.6905 87.0977 17.374 83.5774 17.374 79.981C17.3613 45.461 45.461 17.3613 80.0063 17.3613Z" fill="#F6F6F6"/>
</svg>
